<?xml version="1.0" standalone="no"?>
<!DOCTYPE svg PUBLIC "-//W3C//DTD SVG 20010904//EN"
 "http://www.w3.org/TR/2001/REC-SVG-20010904/DTD/svg10.dtd">
<svg version="1.0" xmlns="http://www.w3.org/2000/svg"
 width="512.000000pt" height="512.000000pt" viewBox="0 0 512.000000 512.000000"
 preserveAspectRatio="xMidYMid meet">
<metadata>
Created by potrace 1.14, written by Peter Selinger 2001-2017
</metadata>
<g transform="translate(0.000000,512.000000) scale(0.100000,-0.100000)"
fill="#000000" stroke="none">
<path d="M2367 4634 c-1 -1 -49 -4 -107 -8 -58 -3 -114 -8 -125 -10 -11 -2
-47 -7 -80 -12 -33 -4 -62 -8 -65 -9 -9 -2 -85 -17 -109 -21 -153 -29 -412
-109 -591 -184 -137 -57 -326 -166 -415 -239 -89 -73 -213 -213 -254 -285
-139 -244 -80 -391 141 -352 41 8 39 11 58 -89 45 -238 186 -452 356 -542 53
-28 199 -74 283 -90 14 -2 30 -8 37 -14 6 -5 14 -7 17 -4 4 3 4 2 1 -2 -4 -6
-38 -15 -151 -39 -12 -2 -35 -9 -50 -15 -16 -6 -29 -10 -30 -10 -2 1 -4 1 -5
0 -21 -6 -47 -11 -65 -13 -11 0 -19 -5 -16 -9 3 -5 -1 -7 -8 -6 -8 2 -24 -2
-36 -9 -12 -6 -30 -13 -40 -15 -10 -2 -27 -7 -38 -11 -120 -45 -192 -75 -257
-107 -42 -20 -79 -35 -82 -32 -3 4 -6 2 -6 -3 0 -5 -21 -21 -47 -34 -27 -14
-50 -28 -53 -31 -3 -3 -25 -19 -50 -36 -105 -71 -254 -210 -292 -273 -12 -19
-25 -37 -29 -40 -11 -8 -65 -121 -79 -165 -18 -54 -16 -140 4 -170 30 -45 71
-58 161 -51 l81 6 2 -33 c6 -75 57 -235 105 -327 36 -70 110 -167 167 -217 60
-54 183 -101 421 -162 205 -52 533 -142 624 -171 34 -11 534 -153 580 -165 17
-5 35 -9 40 -11 26 -8 92 -25 110 -29 11 -2 54 -10 95 -19 86 -17 282 -43 403
-54 109 -9 457 -9 528 1 225 31 352 82 450 179 60 60 63 62 118 64 85 3 194
18 290 40 78 17 200 66 245 97 l34 23 -36 40 c-21 23 -46 52 -57 65 -11 13
-41 49 -66 79 -127 151 -258 342 -379 550 -40 69 -82 136 -92 150 -85 115
-224 278 -271 319 -10 9 -46 42 -79 73 -33 32 -63 58 -67 58 -6 1 -71 57 -71
62 0 2 66 3 148 3 221 1 340 18 479 70 89 34 138 66 194 127 l47 51 78 3 c44
1 79 3 79 4 0 2 23 4 50 5 28 2 63 8 79 14 16 7 35 10 43 7 7 -3 13 -1 13 3 0
5 13 8 29 7 17 -1 27 2 24 8 -4 5 1 7 11 3 9 -4 15 -3 12 2 -3 5 10 12 30 15
19 4 51 16 70 27 20 11 39 17 45 14 5 -4 9 -1 9 5 0 6 11 16 25 22 34 15 32
30 -11 73 -20 21 -83 96 -140 169 -114 143 -109 136 -144 186 -13 19 -28 40
-33 45 -18 22 -117 179 -117 186 0 4 -6 14 -12 21 -13 14 -52 82 -72 125 -6
13 -14 23 -18 23 -5 0 -8 4 -8 10 0 12 -91 140 -150 211 -54 65 -250 261 -305
306 -168 135 -290 216 -448 298 -155 81 -295 137 -452 182 -39 11 -136 33
-162 38 -18 2 -52 9 -75 14 -53 12 -118 20 -228 27 -82 6 -239 11 -243 8z"/>
</g>
</svg>
